<svg xmlns="http://www.w3.org/2000/svg" viewBox="0 0 32 32"><defs><style>.a{fill:#e9e9e9;opacity:0;}.b,.c{fill:#fff;}.b{stroke:#333;}.d,.f{stroke:none;}.e{fill:none;}.f{fill:#333;}</style></defs><g transform="translate(-8 -8)"><rect class="a" width="32" height="32" transform="translate(8 8)"/><g class="b" transform="translate(23 12)"><rect class="d" width="14" height="4"/><rect class="e" x="0.5" y="0.5" width="13" height="3"/></g><g class="b" transform="translate(23 18)"><rect class="d" width="11" height="4"/><rect class="e" x="0.5" y="0.5" width="10" height="3"/></g><g class="b" transform="translate(23 24)"><rect class="d" width="7" height="4"/><rect class="e" x="0.5" y="0.5" width="6" height="3"/></g><g class="b" transform="translate(23 30)"><rect class="d" width="4" height="4"/><rect class="e" x="0.5" y="0.5" width="3" height="3"/></g><g class="c" transform="translate(1207.757 496)"><path class="d" d="M -1191.256958007813 -461.257080078125 L -1191.257202148438 -461.2572937011719 L -1190.404052734375 -462.1102905273438 L -1190.314697265625 -462.1996154785156 L -1191.256958007813 -461.257080078125 Z M -1191.257568359375 -461.2576599121094 L -1191.257568359375 -462.46435546875 L -1191.257568359375 -484.5001220703125 L -1191.257568359375 -462.4638671875 L -1191.257568359375 -461.2576599121094 Z M -1193.5107421875 -463.5108032226563 L -1194.293090820313 -464.29296875 L -1194.292846679688 -464.2931518554688 L -1193.5107421875 -463.5108032226563 Z"/><path class="f" d="M -1191.256225585938 -460.5408020019531 L -1191.257080078125 -460.5408020019531 L -1191.258056640625 -460.5408020019531 L -1191.631225585938 -460.9247131347656 L -1195.000244140625 -464.2929077148438 L -1194.292846679688 -465.0003051757813 L -1191.757568359375 -462.46435546875 L -1191.757568359375 -485.0001220703125 L -1190.757568359375 -485.0001220703125 L -1190.757568359375 -462.4638671875 L -1188.221435546875 -464.9994201660156 L -1187.514892578125 -464.2929077148438 L -1190.912231445313 -460.8947448730469 L -1191.256225585938 -460.5408020019531 Z"/></g></g></svg>