<?xml version="1.0" encoding="utf-8"?>
<!-- Generator: Adobe Illustrator 21.0.1, SVG Export Plug-In . SVG Version: 6.00 Build 0)  -->
<svg version="1.1" id="Слой_1" xmlns="http://www.w3.org/2000/svg" xmlns:xlink="http://www.w3.org/1999/xlink" x="0px" y="0px"
	 viewBox="0 0 507.2 237" style="enable-background:new 0 0 507.2 237;" xml:space="preserve">
<style type="text/css">
	.st0{fill:#F95738;}
</style>
<g>
	<path class="st0" d="M499.7,11.2c-0.3-0.3-0.5-0.6-0.8-0.9c0-0.1-0.1-0.1-0.2-0.2C492.7,3.7,484.4,0,475.6,0H7.5C3.4,0,0,3.4,0,7.5
		S3.4,15,7.5,15h170.4L325,132c2.1,1.7,4.6,2.5,7.2,2.5c2.3,0,4.6-0.7,6.6-2.1L491.1,25.7c1,2.7,1.3,5.7,0.9,8.6l-29,173.8
		c-0.2,1.1-0.5,2.1-0.9,3.2l-61.2-77c-2.6-3.2-7.3-3.8-10.5-1.2c-3.2,2.6-3.8,7.3-1.2,10.5l61.9,77.7c-1.4,0.4-2.9,0.6-4.4,0.6
		H198.7l74.2-76.8c2.9-3,2.8-7.7-0.2-10.6c-3-2.9-7.7-2.8-10.6,0.2l-83.9,86.8c-2.5,2.6-3.3,6.5-1.8,9.9c1.4,3.4,4.7,5.6,8.4,5.6
		h261.8c15.5,0,28.6-11.1,31.2-26.4l29-173.8C508.3,27.6,505.7,18.3,499.7,11.2z M332.3,118.6L202,15h273.6c1.3,0,2.7,0.2,4,0.5
		L332.3,118.6z"/>
	<path class="st0" d="M128,58c0-4.1-3.4-7.5-7.5-7.5H49c-4.1,0-7.5,3.4-7.5,7.5s3.4,7.5,7.5,7.5h71.5C124.6,65.5,128,62.1,128,58z"
		/>
	<path class="st0" d="M161,121.2c0-4.1-3.4-7.5-7.5-7.5H82c-4.1,0-7.5,3.4-7.5,7.5c0,4.1,3.4,7.5,7.5,7.5h71.5
		C157.6,128.7,161,125.3,161,121.2z"/>
	<path class="st0" d="M188,184.3c0-4.1-3.4-7.5-7.5-7.5H109c-4.1,0-7.5,3.4-7.5,7.5s3.4,7.5,7.5,7.5h71.5
		C184.6,191.8,188,188.5,188,184.3z"/>
</g>
</svg>
